<svg id="Layer_1" data-name="Layer 1" xmlns="http://www.w3.org/2000/svg" viewBox="0 0 1281 712"><defs><style>.cls-1{fill:#fff;}.cls-2{font-size:19.63px;}.cls-17,.cls-2,.cls-21,.cls-31,.cls-49{fill:red;}.cls-17,.cls-2,.cls-21,.cls-31,.cls-44,.cls-49{font-family:MyriadPro-Regular, Myriad Pro;}.cls-3{letter-spacing:0.01em;}.cls-14,.cls-15,.cls-16,.cls-3,.cls-4,.cls-5,.cls-50,.cls-6{fill:#000;}.cls-5{letter-spacing:0.01em;}.cls-11,.cls-6{letter-spacing:-0.01em;}.cls-7{letter-spacing:0.01em;}.cls-11,.cls-12,.cls-13,.cls-19,.cls-20,.cls-22,.cls-23,.cls-24,.cls-26,.cls-27,.cls-28,.cls-29,.cls-30,.cls-32,.cls-36,.cls-41,.cls-42,.cls-46,.cls-47,.cls-48,.cls-52,.cls-53,.cls-54,.cls-56,.cls-8,.cls-9{fill:blue;}.cls-16,.cls-9{letter-spacing:-0.01em;}.cls-10,.cls-13,.cls-15{letter-spacing:-0.01em;}.cls-12{letter-spacing:0.02em;}.cls-14{letter-spacing:0.01em;}.cls-17{font-size:17.64px;}.cls-18,.cls-48{letter-spacing:0.01em;}.cls-19{letter-spacing:0.02em;}.cls-20,.cls-38{letter-spacing:-0.01em;}.cls-21{font-size:13.23px;}.cls-22,.cls-40{letter-spacing:-0.01em;}.cls-23{letter-spacing:0em;}.cls-24{letter-spacing:-0.01em;}.cls-25{letter-spacing:0.02em;}.cls-26{letter-spacing:0em;}.cls-27,.cls-39{letter-spacing:-0.01em;}.cls-28{letter-spacing:-0.01em;}.cls-29{letter-spacing:0em;}.cls-30{letter-spacing:-0.01em;}.cls-31,.cls-44{font-size:8.82px;}.cls-32{letter-spacing:0em;}.cls-33,.cls-36{letter-spacing:-0.01em;}.cls-34{letter-spacing:0em;}.cls-35{letter-spacing:0.01em;}.cls-37,.cls-46{letter-spacing:0em;}.cls-41{letter-spacing:0em;}.cls-42{letter-spacing:0.01em;}.cls-43{letter-spacing:0em;}.cls-45,.cls-47{letter-spacing:0em;}.cls-49{font-size:19.65px;}.cls-50{letter-spacing:-0.01em;}.cls-51,.cls-54{letter-spacing:0.01em;}.cls-52{letter-spacing:0.02em;}.cls-53{letter-spacing:-0.01em;}.cls-55,.cls-56{letter-spacing:-0.01em;}.cls-57{stroke:#000;stroke-miterlimit:10;stroke-width:4px;}</style></defs><rect class="cls-1" x="1" y="399" width="645" height="312"/><path d="M670,422V732H27V422H670m2-2H25V734H672V420Z" transform="translate(-25 -22)"/><rect class="cls-1" x="35.53" y="428.44" width="576.9" height="262.94"/><path d="M636.42,451.44V712.38H61.53V451.44H636.42m2-2H59.53V714.38H638.42V449.44Z" transform="translate(-25 -22)"/><rect class="cls-1" x="260.42" y="659.85" width="127.12" height="15.45"/><path d="M411.53,682.85V696.3H286.41V682.85H411.53m2-2H284.41V698.3H413.53V680.85Z" transform="translate(-25 -22)"/><text class="cls-2" transform="translate(252.14 517.34) scale(1.16 1)">&lt;h2&gt;<tspan class="cls-3" x="44.35" y="0">G</tspan><tspan class="cls-4" x="57.19" y="0">ame </tspan><tspan class="cls-5" x="97" y="0">O</tspan><tspan class="cls-6" x="110.8" y="0">v</tspan><tspan class="cls-4" x="120.04" y="0">er</tspan></text><text class="cls-2" transform="translate(36.97 424.01) scale(1.16 1)">&lt;se<tspan class="cls-7" x="29.3" y="0">c</tspan><tspan x="38.35" y="0">tion </tspan><tspan class="cls-8" x="75.26" y="0">#end_sc</tspan><tspan class="cls-9" x="143.18" y="0">r</tspan><tspan class="cls-8" x="149.4" y="0">een</tspan><tspan x="179.96" y="0">&gt;</tspan></text><text class="cls-2" transform="translate(209.36 655.57) scale(1.16 1)">&lt;but<tspan class="cls-10" x="40.17" y="0">t</tspan><tspan x="46.55" y="0">on </tspan><tspan class="cls-8" x="72.38" y="0">#</tspan><tspan class="cls-11" x="82.13" y="0">r</tspan><tspan class="cls-8" x="88.35" y="0">esta</tspan><tspan class="cls-12" x="121.91" y="0">r</tspan><tspan class="cls-8" x="128.8" y="0">t_but</tspan><tspan class="cls-13" x="173.58" y="0">t</tspan><tspan class="cls-8" x="179.96" y="0">on</tspan><tspan x="201.62" y="0">&gt;</tspan></text><text class="cls-2" transform="translate(274.25 574.99) scale(1.16 1)">&lt;h3&gt;<tspan class="cls-14" x="44.35" y="0">S</tspan><tspan class="cls-15" x="54.14" y="0">c</tspan><tspan class="cls-4" x="62.82" y="0">o</tspan><tspan class="cls-16" x="73.59" y="0">r</tspan><tspan class="cls-4" x="79.81" y="0">e</tspan></text><text class="cls-17" transform="translate(723.9 131.08) scale(1.18 1)">&lt;se<tspan class="cls-18" x="26.33" y="0">c</tspan><tspan x="34.47" y="0">tion </tspan><tspan class="cls-8" x="67.64" y="0">#sta</tspan><tspan class="cls-19" x="97.73" y="0">r</tspan><tspan class="cls-8" x="103.93" y="0">t_sc</tspan><tspan class="cls-20" x="133.47" y="0">r</tspan><tspan class="cls-8" x="139.06" y="0">een</tspan><tspan x="166.52" y="0">&gt;</tspan></text><rect class="cls-1" x="691" y="111" width="589" height="387"/><path d="M1304,134V519H717V134h587m2-2H715V521h591V132Z" transform="translate(-25 -22)"/><rect class="cls-1" x="722.54" y="137.46" width="526.79" height="349.89"/><path d="M1273.33,160.46V508.34H748.54V160.46h524.79m2-2H746.54V510.34h528.79V158.46Z" transform="translate(-25 -22)"/><rect class="cls-1" x="788.23" y="158.15" width="394.63" height="30.07"/><path d="M1206.86,181.15v28.07H814.23V181.15h392.63m2-2H812.23v32.07h396.63V179.15Z" transform="translate(-25 -22)"/><text class="cls-21" transform="translate(787.28 154.23) scale(1.18 1)">&lt;header <tspan class="cls-8" x="49.45" y="0">#s</tspan><tspan class="cls-22" x="61.26" y="0">c</tspan><tspan class="cls-23" x="67.11" y="0">o</tspan><tspan class="cls-24" x="74.37" y="0">r</tspan><tspan class="cls-8" x="78.57" y="0">e_time</tspan><tspan x="116.94" y="0">&gt;</tspan></text><rect class="cls-1" x="788.17" y="203.74" width="394.63" height="30.07"/><path d="M1206.8,226.74v28.07H814.17V226.74H1206.8m2-2H812.17v32.07H1208.8V224.74Z" transform="translate(-25 -22)"/><text class="cls-21" transform="translate(791.18 199.51) scale(1.18 1)">&lt;a<tspan class="cls-25" x="14.26" y="0">r</tspan><tspan x="18.9" y="0">ticle </tspan><tspan class="cls-8" x="44.86" y="0">#quo</tspan><tspan class="cls-22" x="73.43" y="0">t</tspan><tspan class="cls-23" x="77.73" y="0">e</tspan><tspan x="84.36" y="0">&gt;</tspan></text><rect class="cls-1" x="788.17" y="250.5" width="394.63" height="82.51"/><path d="M1206.8,273.5V354H814.17V273.5H1206.8m2-2H812.17V356H1208.8V271.5Z" transform="translate(-25 -22)"/><text class="cls-21" transform="translate(791.18 245.9) scale(1.18 1)">&lt;a<tspan class="cls-25" x="14.26" y="0">r</tspan><tspan x="18.9" y="0">ticle </tspan><tspan class="cls-8" x="44.86" y="0">#game_</tspan><tspan class="cls-22" x="89.48" y="0">c</tspan><tspan class="cls-23" x="95.33" y="0">o</tspan><tspan class="cls-26" x="102.59" y="0">n</tspan><tspan class="cls-8" x="109.88" y="0">t</tspan><tspan class="cls-24" x="114.26" y="0">r</tspan><tspan class="cls-8" x="118.45" y="0">ols</tspan><tspan x="134.07" y="0">&gt;</tspan></text><text class="cls-21" transform="translate(788.59 345.11) scale(1.18 1)">&lt;a<tspan class="cls-25" x="14.26" y="0">r</tspan><tspan x="18.9" y="0">ticle </tspan><tspan class="cls-8" x="44.86" y="0">#user_</tspan><tspan class="cls-27" x="81.53" y="0">f</tspan><tspan class="cls-8" x="85.22" y="0">eedback&gt;</tspan></text><rect class="cls-1" x="885.42" y="164.86" width="79.65" height="17.84"/><path d="M989.07,187.86v15.85H911.42V187.86h77.65m2-2H909.42v19.85h81.65V185.86Z" transform="translate(-25 -22)"/><text class="cls-21" transform="translate(885.36 177.26) scale(1.18 1)">&lt;h3 <tspan class="cls-8" x="24.82" y="0">#s</tspan><tspan class="cls-28" x="36.63" y="0">c</tspan><tspan class="cls-29" x="42.48" y="0">o</tspan><tspan class="cls-30" x="49.74" y="0">r</tspan><tspan class="cls-8" x="53.93" y="0">e</tspan><tspan x="60.56" y="0">&gt;</tspan></text><rect class="cls-1" x="994.28" y="164.86" width="79.65" height="17.84"/><path d="M1097.93,187.86v15.85h-77.65V187.86h77.65m2-2h-81.65v19.85h81.65V185.86Z" transform="translate(-25 -22)"/><text class="cls-21" transform="translate(994.23 177.26) scale(1.18 1)">&lt;h3 <tspan class="cls-8" x="24.82" y="0">#time</tspan><tspan x="56.53" y="0">&gt;</tspan></text><rect class="cls-1" x="932.07" y="207.86" width="91.32" height="17.84"/><path d="M1047.39,230.86V246.7H958.07V230.86h89.32m2-2H956.07V248.7h93.32V228.86Z" transform="translate(-25 -22)"/><text class="cls-21" transform="translate(960.53 220.25) scale(1.18 1)">&lt;h2&gt;</text><rect class="cls-1" x="846.92" y="264.08" width="277.56" height="24.7"/><path d="M1148.48,287.08v22.71H872.92V287.08h275.56m2-2H870.92v26.71h279.56V285.08Z" transform="translate(-25 -22)"/><text class="cls-31" transform="translate(845.57 260.21) scale(1.18 1)">&lt;div <tspan class="cls-8" x="18.41" y="0">#input_w</tspan><tspan class="cls-32" x="53.44" y="0">r</tspan><tspan class="cls-8" x="56.28" y="0">apper</tspan><tspan x="77.87" y="0">&gt;</tspan></text><rect class="cls-1" x="869.86" y="267.39" width="91.32" height="17.84"/><path d="M985.18,290.39v15.84H895.86V290.39h89.32m2-2H893.86v19.84h93.32V288.39Z" transform="translate(-25 -22)"/><rect class="cls-1" x="990.4" y="267.39" width="91.32" height="17.84"/><path d="M1105.71,290.39v15.84H1016.4V290.39h89.31m2-2H1014.4v19.84h93.31V288.39Z" transform="translate(-25 -22)"/><text class="cls-31" transform="translate(888.51 279.4) scale(1.18 1)">&lt;<tspan class="cls-33" x="5.26" y="0">t</tspan><tspan class="cls-34" x="8.12" y="0">e</tspan><tspan class="cls-35" x="12.51" y="0">x</tspan><tspan x="16.71" y="0">t input&gt;</tspan></text><text class="cls-31" transform="translate(1016.67 280.14) scale(1.18 1)">&lt;submit&gt;</text><rect class="cls-1" x="846.88" y="303.15" width="277.56" height="24.7"/><path d="M1148.44,326.15v22.7H872.88v-22.7h275.56m2-2H870.88v26.7h279.56v-26.7Z" transform="translate(-25 -22)"/><text class="cls-31" transform="translate(845.53 299.27) scale(1.18 1)">&lt;div <tspan class="cls-8" x="18.41" y="0">#but</tspan><tspan class="cls-36" x="35.59" y="0">t</tspan><tspan class="cls-8" x="38.45" y="0">on_w</tspan><tspan class="cls-32" x="59.09" y="0">r</tspan><tspan class="cls-8" x="61.93" y="0">apper</tspan><tspan x="83.52" y="0">&gt;</tspan></text><text class="cls-17" transform="translate(718.73 134.02) scale(1.18 1)">&lt;se<tspan class="cls-18" x="26.33" y="0">c</tspan><tspan x="34.47" y="0">tion </tspan><tspan class="cls-8" x="67.64" y="0">#game_sc</tspan><tspan class="cls-20" x="142.03" y="0">r</tspan><tspan class="cls-8" x="147.62" y="0">een</tspan><tspan x="175.08" y="0">&gt;</tspan></text><rect class="cls-1" x="870.29" y="306.34" width="91.32" height="17.84"/><path d="M985.61,329.34v15.84H896.29V329.34h89.32m2-2H894.29v19.84h93.32V327.34Z" transform="translate(-25 -22)"/><rect class="cls-1" x="990.83" y="306.34" width="91.32" height="17.84"/><path d="M1106.14,329.34v15.84h-89.31V329.34h89.31m2-2h-93.31v19.84h93.31V327.34Z" transform="translate(-25 -22)"/><text class="cls-31" transform="translate(887.01 318.35) scale(1.18 1)">&lt;hi<tspan class="cls-37" x="12.21" y="0">n</tspan><tspan x="17.07" y="0">t_but</tspan><tspan class="cls-33" x="37.2" y="0">t</tspan><tspan x="40.06" y="0">on&gt;</tspan></text><text class="cls-31" transform="translate(1001.66 317.99) scale(1.18 1)">&lt;<tspan class="cls-38" x="5.26" y="0">r</tspan><tspan x="8.05" y="0">e</tspan><tspan class="cls-38" x="12.47" y="0">v</tspan><tspan x="16.62" y="0">eal_but</tspan><tspan class="cls-33" x="44.58" y="0">t</tspan><tspan x="47.45" y="0">on&gt;</tspan></text><rect class="cls-1" x="792.61" y="449.11" width="394.63" height="30.07"/><path d="M1211.23,472.11v28.07H818.61V472.11h392.62m2-2H816.61v32.07h396.62V470.11Z" transform="translate(-25 -22)"/><text class="cls-21" transform="translate(795.62 444.88) scale(1.18 1)">&lt;<tspan class="cls-39" x="7.88" y="0">f</tspan><tspan x="11.58" y="0">oo</tspan><tspan class="cls-40" x="26.1" y="0">t</tspan><tspan x="30.4" y="0">er </tspan><tspan class="cls-8" x="44.16" y="0">#n</tspan><tspan class="cls-41" x="58.07" y="0">e</tspan><tspan class="cls-42" x="64.66" y="0">x</tspan><tspan class="cls-8" x="70.96" y="0">t_question</tspan><tspan x="130.64" y="0">&gt;</tspan></text><rect class="cls-1" x="938.12" y="455.54" width="91.32" height="17.84"/><path d="M1053.44,478.54v15.84H964.12V478.54h89.32m2-2H962.12v19.84h93.32V476.54Z" transform="translate(-25 -22)"/><text class="cls-31" transform="translate(947.49 466.45) scale(1.18 1)">&lt;n<tspan class="cls-43" x="10.15" y="0">e</tspan><tspan class="cls-18" x="14.54" y="0">x</tspan><tspan x="18.74" y="0">t_question&gt;</tspan></text><rect class="cls-1" x="789.1" y="349" width="394.63" height="74.41"/><path d="M1207.72,372v72.4H815.1V372h392.62m2-2H813.1v76.4h396.62V370Z" transform="translate(-25 -22)"/><rect class="cls-1" x="825.8" y="362.56" width="87.43" height="51.28"/><path d="M937.22,385.56v49.29H851.8V385.56h85.42m2-2H849.8v53.29h89.42V383.56Z" transform="translate(-25 -22)"/><rect class="cls-1" x="933.37" y="361.83" width="87.43" height="51.28"/><path d="M1044.8,384.83v49.28H959.37V384.83h85.43m2-2H957.37v53.28h89.43V382.83Z" transform="translate(-25 -22)"/><rect class="cls-1" x="1043.53" y="361.09" width="87.43" height="51.28"/><path d="M1155,384.09v49.29h-85.43V384.09H1155m2-2h-89.43v53.29H1157V382.09Z" transform="translate(-25 -22)"/><text class="cls-44" transform="translate(835.46 390.87) scale(1.18 1)">hi<tspan class="cls-37" x="6.96" y="0">n</tspan><tspan x="11.82" y="0">ts</tspan></text><text class="cls-44" transform="translate(954.27 389.4) scale(1.18 1)"><tspan xml:space="preserve"> ans</tspan><tspan class="cls-38" x="14.51" y="0">w</tspan><tspan x="20.91" y="0">er</tspan></text><text class="cls-44" transform="translate(1067.46 389.04) scale(1.18 1)"><tspan class="cls-33">c</tspan><tspan x="3.9" y="0">o</tspan><tspan class="cls-45" x="8.74" y="0">r</tspan><tspan class="cls-38" x="11.66" y="0">r</tspan><tspan x="14.46" y="0">e</tspan><tspan class="cls-18" x="18.87" y="0">c</tspan><tspan x="22.94" y="0">t/</tspan><tspan x="0" y="10.58">in</tspan><tspan class="cls-33" x="6.96" y="10.58">c</tspan><tspan x="10.86" y="10.58">o</tspan><tspan class="cls-45" x="15.7" y="10.58">r</tspan><tspan class="cls-38" x="18.62" y="10.58">r</tspan><tspan x="21.41" y="10.58">e</tspan><tspan class="cls-18" x="25.83" y="10.58">c</tspan><tspan x="29.9" y="10.58">t</tspan></text><text class="cls-31" transform="translate(830.84 373.87) scale(1.18 1)">&lt;div <tspan class="cls-8" x="18.41" y="0">#hi</tspan><tspan class="cls-46" x="29.75" y="0">n</tspan><tspan class="cls-8" x="34.61" y="0">ts</tspan></text><text class="cls-31" transform="translate(949.64 372.4) scale(1.18 1)">&lt;div <tspan class="cls-8" x="18.41" y="0">#ans</tspan><tspan class="cls-20" x="35.43" y="0">w</tspan><tspan class="cls-8" x="41.83" y="0">er</tspan></text><text class="cls-31" transform="translate(1054.19 370.93) scale(1.18 1)">&lt;div <tspan class="cls-8" x="18.41" y="0">#</tspan><tspan class="cls-36" x="22.79" y="0">c</tspan><tspan class="cls-8" x="26.69" y="0">o</tspan><tspan class="cls-47" x="31.53" y="0">r</tspan><tspan class="cls-20" x="34.45" y="0">r</tspan><tspan class="cls-8" x="37.25" y="0">e</tspan><tspan class="cls-48" x="41.66" y="0">c</tspan><tspan class="cls-8" x="45.73" y="0">t</tspan></text><rect class="cls-1" x="19.07" y="1" width="605.93" height="312.32"/><path d="M649,24V334.32H45.07V24H649m2-2H43.07V336.32H651V22Z" transform="translate(-25 -22)"/><rect class="cls-1" x="51.51" y="30.47" width="541.94" height="263.21"/><path d="M617.45,53.47V314.68H77.51V53.47H617.45m2-2H75.51V316.68H619.45V51.47Z" transform="translate(-25 -22)"/><rect class="cls-1" x="262.82" y="262.12" width="119.32" height="15.47"/><path d="M406.14,285.12v13.46H288.82V285.12H406.14m2-2H286.82v17.46H408.14V283.12Z" transform="translate(-25 -22)"/><rect class="cls-1" x="119.49" y="104.89" width="405.99" height="107.61"/><path d="M549.47,127.89V233.5h-404V127.89h404m2-2h-408V235.5h408V125.89Z" transform="translate(-25 -22)"/><text class="cls-49" transform="translate(279.32 66.41) scale(1.09 1)">&lt;h1&gt;<tspan class="cls-50" x="44.4" y="0">T</tspan><tspan class="cls-4" x="53.92" y="0">itle</tspan></text><text class="cls-49" transform="translate(52.81 26.04) scale(1.09 1)">&lt;se<tspan class="cls-51" x="29.33" y="0">c</tspan><tspan x="38.39" y="0">tion </tspan><tspan class="cls-8" x="75.34" y="0">#sta</tspan><tspan class="cls-52" x="108.85" y="0">r</tspan><tspan class="cls-8" x="115.75" y="0">t_sc</tspan><tspan class="cls-53" x="148.65" y="0">r</tspan><tspan class="cls-8" x="154.88" y="0">een</tspan><tspan x="185.47" y="0">&gt;</tspan></text><text class="cls-49" transform="translate(119.02 102.27) scale(1.09 1)">&lt;p <tspan class="cls-8" x="27.05" y="0">#instru</tspan><tspan class="cls-54" x="83.84" y="0">c</tspan><tspan class="cls-8" x="92.9" y="0">tions</tspan><tspan x="133.47" y="0">&gt;</tspan></text><text class="cls-49" transform="translate(214.79 257.83) scale(1.09 1)">&lt;but<tspan class="cls-55" x="40.21" y="0">t</tspan><tspan x="46.6" y="0">on </tspan><tspan class="cls-8" x="72.45" y="0">#sta</tspan><tspan class="cls-52" x="105.96" y="0">r</tspan><tspan class="cls-8" x="112.86" y="0">t_but</tspan><tspan class="cls-56" x="157.69" y="0">t</tspan><tspan class="cls-8" x="164.07" y="0">on</tspan><tspan x="185.76" y="0">&gt;</tspan></text><line class="cls-57" x1="637" y1="43" x2="827" y2="93"/><line class="cls-57" x1="690" y1="649" x2="865" y2="509"/><line class="cls-57" x1="337" y1="377" x2="337" y2="332"/><path d="M360.12,353.46a70.47,70.47,0,0,0-16.59,16.33,1.5,1.5,0,1,0,2.59,1.52,66.09,66.09,0,0,1,15.51-15.26,1.56,1.56,0,0,0,.54-2.06,1.51,1.51,0,0,0-2.05-.53Z" transform="translate(-25 -22)"/><path d="M357.06,357.44a62.92,62.92,0,0,1,18.62,14.13c1.3,1.44,3.42-.69,2.12-2.12a65.08,65.08,0,0,0-19.23-14.6c-1.72-.86-3.24,1.73-1.51,2.59Z" transform="translate(-25 -22)"/><path d="M853.86,113l-7.43-15.86a1.52,1.52,0,0,0-2-.54,1.54,1.54,0,0,0-.54,2l7.43,15.87a1.5,1.5,0,0,0,2.05.53,1.53,1.53,0,0,0,.54-2Z" transform="translate(-25 -22)"/><path d="M850,114.12l-13.13,10a1.55,1.55,0,0,0-.54,2,1.52,1.52,0,0,0,2,.54l13.14-10a1.55,1.55,0,0,0,.54-2,1.53,1.53,0,0,0-2.06-.54Z" transform="translate(-25 -22)"/><path d="M716.33,670.66l4.14-34.82c.22-1.91-2.78-1.89-3,0l-4.14,34.82c-.23,1.91,2.77,1.9,3,0Z" transform="translate(-25 -22)"/><path d="M715.94,674.88l62.3,4.82c1.93.15,1.92-2.85,0-3l-62.3-4.82c-1.92-.15-1.92,2.85,0,3Z" transform="translate(-25 -22)"/></svg>